<?xml version="1.0" standalone="no"?>
<!DOCTYPE svg PUBLIC "-//W3C//DTD SVG 20010904//EN"
 "http://www.w3.org/TR/2001/REC-SVG-20010904/DTD/svg10.dtd">
<svg version="1.0" xmlns="http://www.w3.org/2000/svg"
 width="256.000000pt" height="256.000000pt" viewBox="0 0 256.000000 256.000000"
 preserveAspectRatio="xMidYMid meet">
<metadata>
Created by potrace 1.11, written by Peter Selinger 2001-2013
</metadata>
<g transform="translate(0.000000,256.000000) scale(0.100000,-0.100000)"
fill="#000000" stroke="none">
<path d="M1137 2554 c-2 -2 -21 -6 -43 -8 -21 -2 -73 -12 -114 -21 -315 -73
-609 -284 -785 -564 -71 -114 -155 -320 -169 -416 -3 -22 -8 -51 -12 -65 -4
-14 -8 -95 -9 -180 -4 -230 32 -392 130 -591 110 -223 283 -408 497 -532 72
-42 83 -47 163 -82 58 -26 225 -73 292 -82 72 -10 309 -10 382 0 148 19 330
85 471 170 273 166 475 425 565 726 23 78 28 100 45 211 9 58 6 317 -4 360 -3
14 -9 41 -12 60 -11 65 -66 225 -106 305 -148 298 -396 521 -712 639 -38 14
-78 28 -90 31 -11 2 -32 7 -46 10 -100 24 -187 33 -317 33 -67 0 -124 -2 -126
-4z"/>
</g>
</svg>
